P2
64 64
65535
2773 2762 38098 11126 50835 62727 22187 19694 13901 47482 30087 41202 56411 
1806 46317 10364 41739 13820 19124 50728 32885 42568 47524 54398 18039 29328 
759 57131 34074 24060 47989 19259 48996 24908 40326 3074 46495 54744 20660 
56952 24631 18612 1621 25840 35746 42200 16225 9527 37116 61393 7753 52250 
53345 46561 14164 584 32715 21856 60892 51475 52362 27618 27091 50623 11905 
2080 15140 41694 49864 39776 10442 59156 37605 12391 41155 9816 6805 31440 
4839 44343 34267 60470 61858 23729 11420 52244 20736 24746 40959 33381 5748 
41212 51620 50573 48045 38498 57024 59595 25875 45143 6142 24090 12484 40594 
41261 24735 43 7285 54233 47268 60598 62138 9218 53343 12625 52626 38519 49515 
49389 36724 17408 32442 17344 5335 12675 44728 46039 53206 19265 29839 1570 
7185 287 15349 39968 27797 51825 17262 36537 10929 42874 19839 47501 6826 523 
22751 14338 8241 27929 33104 53648 27561 23907 49551 22540 24513 46568 40240 
34751 37567 51491 25221 62383 15002 35635 61284 9990 31666 61902 36592 57142 
28727 11148 62548 21530 34468 60599 65205 48311 47406 51216 47820 1699 19597 
20596 35700 25357 5595 19337 9122 10552 28255 59151 49994 1492 26064 21668 
46742 22020 61429 62218 19815 61622 64968 46767 55395 18110 29492 54651 42745 
8436 17543 29567 6366 42598 42554 5918 45981 51309 39807 2797 6224 25159 34191 
3933 61989 22088 55677 2872 46225 31781 53197 46534 19245 37382 18349 3941 
27599 43025 49342 16529 19789 33734 32802 55865 27365 53070 51587 1006 45488 
45236 3304 50576 10859 28055 18563 40896 40778 9015 48739 19348 57571 23134 
56660 51139 62244 39583 12111 30818 40071 46673 41686 46773 33795 5925 24436 
50397 26860 35739 12574 43506 4369 34905 63756 41494 60776 41839 51774 23212 
59497 60764 42915 11812 50590 25032 46452 17538 29502 44779 31449 22439 37086 
757 13136 62927 55222 5713 37122 13160 37252 8705 38574 16317 57196 14789 
58431 30006 12273 34906 62720 3556 11620 31382 52372 21530 41888 56264 32864 
56135 29258 25735 29734 42322 30960 15204 291 52260 34333 29330 16437 23660 
63182 43638 24941 5293 27199 52384 13656 21437 37728 1543 38419 30277 10127 
27633 14432 41042 37169 57277 55423 44407 47049 19004 5989 12018 17632 20131 
57818 30109 18854 54581 31503 65457 44114 23545 22475 65012 57983 20658 45470 
35012 48171 21436 16307 56878 58280 48561 40239 49857 48701 227 28535 15419 
23284 24395 6001 60480 13941 20475 11361 29946 28633 7997 42684 54171 1191 
48488 7138 28574 12803 15254 36600 56931 15834 38097 45170 37379 18343 19639 
56556 30781 34987 31018 25440 19753 65421 18994 61551 7827 57593 761 64278 
61208 15756 2848 20623 35156 5342 59272 24054 6219 51414 62978 37883 5654 47028 
39242 40652 2947 45254 9973 53558 61158 61375 3082 25184 11438 9653 45250 
3344 16498 44206 35468 62705 39568 53098 10787 8745 13499 1719 41613 50744 
18681 56302 39652 20600 64992 33610 18262 46598 58869 16474 11936 3962 58729 
45957 5051 42078 31423 44220 19642 52212 32644 64540 42843 63804 29672 22585 
50626 15962 9747 60575 47228 20557 5891 55921 39892 1575 54682 19330 23971 
10442 60704 60888 54368 52353 23534 2322 10883 44192 61390 64019 58429 15740 
37474 4037 34652 21616 17636 31742 56733 40922 45552 22974 31604 38252 18847 
52362 56223 23749 3947 65113 29485 49450 64506 42350 54527 28041 31681 65073 
21409 64492 10881 64389 15702 58765 31937 15525 9421 23867 44780 4873 14522 
8181 54157 45808 62490 64906 63445 21672 21983 3051 52658 64927 17749 52598 
24352 46769 55718 1420 45172 45786 43138 44310 17225 47701 51922 51843 51792 
32493 59466 38600 27505 47 60978 40001 5279 63894 18953 31277 6791 44356 19516 
50937 65088 49803 41700 26640 17378 30336 42039 31708 1648 24752 8696 17946 
11207 44177 961 33084 64871 36202 1016 18279 4256 52751 44579 49529 8459 22058 
7745 34534 28662 3867 36714 29343 23463 22078 60756 23864 36016 38146 45277 
7983 14575 4186 18481 12704 28489 25270 60232 14067 22778 40500 60363 8175 
23971 34546 58436 61419 62837 61215 21441 58013 63941 52657 57060 61975 20315 
18643 54961 63059 47405 6568 38202 47333 27854 17379 56872 17240 32021 354 45056 
56618 19095 57774 6379 26665 59652 58949 6846 17994 4298 14318 50465 37332 
18939 63050 43007 38772 14080 17961 32424 18776 51302 6374 33606 56445 52577 
21728 57452 22381 58186 62993 38915 62839 47028 46707 22658 1447 2195 46565 
39887 11004 57388 24067 12945 64067 17199 62182 56508 52953 6037 1682 32369 
4239 28134 30220 61984 54748 1575 14441 64961 46604 17247 24402 32504 60650 
20107 18732 36781 44642 42859 64188 51685 21767 28891 5425 16279 36713 1341 
40465 33520 64742 54572 24245 19844 7291 9492 9509 24701 1207 52126 18359 
25177 25209 42498 65098 23458 34299 6553 14314 54925 447 58962 40635 14506 
11400 21212 62136 10151 63344 37925 61154 5739 43812 36917 65146 33431 18290 
10603 36026 32666 3847 50609 55756 5893 55592 7736 2980 9282 7896 18709 3308 
49196 33792 59672 47352 45631 64597 29722 64250 33845 51800 19381 60563 49016 
46043 27120 14639 728 27584 18791 23223 15752 27923 16002 20723 57230 64255 
47199 46694 48820 22127 17723 31767 41300 57180 23310 40312 19770 30975 4254 
15143 47484 15824 24586 42988 25456 34649 45215 17256 41071 13213 29132 12706 
39015 62532 19533 32511 31087 25888 52286 37078 22024 43943 65401 16175 17873 
58876 22094 23798 26265 61522 59501 43944 28361 30832 5756 9010 46531 18903 
1473 58527 37429 53050 49031 33187 1562 3232 43792 12601 4001 36991 17921 
50069 40562 41065 2244 27190 46730 48906 17291 55362 2880 42458 51209 25537 
50970 8893 41930 34528 44206 35230 30596 58463 28346 46741 33387 47104 7092 
47180 8468 33391 51376 18242 8672 62824 42740 43315 31956 60028 41959 42835 
39046 50155 35827 5011 4477 42077 40883 63860 42150 36126 60632 47747 35160 
37417 18488 37439 24648 42846 11013 37379 61243 14984 18047 34082 61315 22353 
21658 32883 44619 7192 38417 64080 58336 20248 15310 54016 4272 61531 12402 
11460 3113 18117 19708 55586 21925 6506 42198 53510 37792 64284 62738 31572 
7087 9473 44365 13826 38850 9234 20746 56668 34656 18532 32490 46880 60987 
23394 39966 45711 24535 38117 4783 22547 4032 49179 17235 60395 25556 43785 
32035 13936 56693 56591 25608 43061 38091 33184 46435 62336 50197 8964 20991 
15737 27925 2113 2467 20155 26563 20625 63174 64906 7370 63989 44646 4511 63180 
30932 43137 41890 23861 3645 61684 8248 2958 1752 61918 262 57621 26867 50609 
51182 54840 61778 40038 3649 13495 20751 30612 59473 37964 8627 35957 30005 
56687 44468 705 6655 45250 22894 48065 8085 55363 4221 59102 20220 55708 989 
13033 31979 63990 41775 21793 2082 19024 8514 17 64816 11306 16408 14036 37189 
21407 52836 27529 43065 12660 41273 38595 50988 19530 32170 44228 16699 18836 
55019 1288 63149 22820 56984 11668 60508 54979 4783 56635 8483 58776 3268 14143 
62106 9514 53477 28843 39762 12478 50581 47706 54764 62893 815 41971 58900 
33884 16161 14113 35842 6710 24895 58137 49182 52798 6265 2725 52419 61752 
23411 33234 3141 9756 27931 1436 13723 59353 7206 36769 32465 50364 6318 22377 
54488 23663 39834 10405 23210 42422 61502 36167 52069 6986 32129 26183 1623 
56749 2584 48481 54039 42265 41658 8576 61382 25604 4372 47155 61884 20060 
22155 22448 8894 19880 50443 1653 32730 48835 45272 33537 23510 46378 33015 
48267 43905 42445 17561 61035 43744 29621 22854 18948 52210 47779 49768 7633 
17572 43292 30779 29554 21032 54722 23193 62995 18296 54952 57629 35843 62202 
59337 47943 40617 3875 43362 47915 43597 47456 14849 28688 48057 50227 37927 
7420 15328 23533 56439 16877 22803 48206 25638 20984 62679 57054 43419 1124 
25486 41549 2547 3094 54155 2234 19636 63642 36485 50932 62458 22480 1206 4597 
60392 55337 30106 17183 4956 8372 33137 38548 63784 30497 63468 29731 21002 
45699 5711 47184 62335 13769 33503 13048 27274 42551 18256 39267 32052 32989 
23815 12919 63681 47364 58678 60652 11090 55526 12598 46490 47920 26403 30903 
20144 46806 59745 45421 13502 5239 11431 43237 49659 31938 37727 49822 40560 
32660 62321 13478 51416 51325 4641 35086 29157 49502 23154 31109 9090 17441 
60092 35018 45223 26814 45664 16718 46870 63025 8916 36441 16676 61465 25498 
30626 16701 9853 56293 31243 1293 31264 16256 19931 28197 17461 62094 23459 
15030 9071 63978 53588 16409 27244 712 29052 64114 35493 57223 2547 55745 
39810 3441 3094 58511 3385 11300 37568 9400 17592 18750 44401 23373 60406 
21313 49126 37749 27088 22820 53418 30506 26277 35468 27381 4755 32156 28845 
33387 26262 34266 11731 59004 38226 14004 36267 63308 35088 2255 54975 58164 
38918 35985 40556 22681 57127 5124 2304 49235 61750 7123 28027 24652 22411 
33280 49087 45396 35217 22679 57422 90 16685 21333 14304 14397 35871 18909 
58648 9618 58070 723 23624 38574 27250 4184 39540 27651 22597 45927 50265 
24819 56290 19438 14218 27461 27238 39096 41710 54099 21240 18565 36492 14677 
58494 11328 56734 44957 39395 9451 13026 57189 36434 22412 37754 47209 53349 
40324 59109 26590 10620 33695 51172 61199 29327 21179 37199 64332 4127 2096 
211 38020 5662 10529 19393 26410 26515 12026 33758 3740 51248 63132 5955 47781 
25746 16967 50775 48339 19979 36742 57506 20788 38550 43706 12889 57040 35301 
57487 24757 26349 50116 54667 46248 38990 15647 1449 58760 3777 62757 42453 
30561 6819 60850 9651 60967 32980 28742 30363 15131 29169 57544 59436 64 36344 
34771 61256 31425 37895 33369 17604 58344 36222 10216 13169 42578 41932 55231 
34217 45273 20828 57178 29812 10970 48524 7765 16102 28927 31057 27989 7823 
20727 17500 24068 50927 23785 65175 24845 55668 54085 10969 14832 38822 17757 
10744 50266 42476 15672 16812 11555 57620 25492 746 38003 41810 34772 30447 
10264 61728 8400 30459 61085 42673 64503 28274 17534 6360 45480 40920 41873 
33382 16235 708 7649 7459 65448 48334 10144 10696 12289 7581 43103 64540 58338 
1165 55449 3940 13233 30359 36754 20784 63296 1394 31080 41817 2387 15497 
23273 46392 52196 36585 45100 11925 55735 30439 3554 22733 11584 2892 38085 
8002 57417 34237 12704 49284 60268 2888 19513 57287 5860 11729 64827 10808 
26106 61924 33730 14647 58646 54749 61412 41757 13682 34462 56855 15305 26206 
20831 53611 1420 48474 31489 38128 20630 16901 61922 33404 37082 2479 20903 
61158 11050 40024 11101 49759 36287 15657 16111 20912 52616 54910 10692 51236 
62249 63562 15522 39554 50099 1212 14143 1778 64827 33929 41221 53640 16146 
23972 5972 61709 17732 38524 27068 49445 18614 63718 33467 50505 25524 51578 
64662 21574 23639 1884 29778 62797 44027 2936 27634 42986 50529 35829 8685 
38351 48507 39254 45571 31683 30219 28926 11171 48859 18431 57807 54620 47590 
47600 42242 52935 4144 29994 50741 10641 19099 63788 48696 51014 51837 55020 
3890 25469 54369 60175 3074 15995 506 56486 5188 56526 50445 11868 4816 57655 
63088 56040 41599 31286 1286 48241 45259 16125 21158 8781 6280 16509 34792 
62370 58931 24992 60876 19657 58771 53732 43184 21674 3793 20845 55675 13031 
38677 14672 42361 59973 32471 48144 41337 15673 26514 18209 47906 33384 9770 
34687 45443 64805 44684 22181 28639 14142 38982 32432 26745 41868 7136 59650 
14238 12179 31570 42897 8310 12019 47678 31444 1013 33062 46017 43823 603 230 
29437 4286 5837 16778 60391 8932 19868 15806 410 42340 24537 57241 50541 24919 
20429 46391 60474 7405 5906 40173 52917 58137 31565 30001 30153 32611 18651 
20775 44143 56957 37887 20415 20447 18530 21740 21913 42378 61474 28221 13005 
61202 50811 31903 50729 35491 1305 20289 32426 9207 36444 64368 33154 39292 
52132 61080 18031 38981 32928 13120 15727 54051 51304 30244 65529 37000 15037 
39772 31092 22186 8154 62070 17155 54244 54264 59132 56689 30483 31208 12296 
28529 32324 7500 47831 63450 59715 64250 51935 11935 15513 23665 25222 13266 
29305 14708 18893 30151 11105 45776 33616 7036 53102 47605 43516 42295 55241 
5062 39589 4157 60525 39224 30999 30047 18735 51796 60370 19360 21070 57990 
56208 52365 7116 33085 38695 47027 13913 6568 12281 49316 52126 27091 51743 
26452 10728 24768 40902 20711 28037 16566 39213 37945 46988 13109 17924 21671 
40337 20187 45258 37189 48490 16429 43981 4545 61175 64134 21493 45218 34680 
55380 57913 50197 38331 39962 46765 38751 24465 24424 42859 3606 18036 34713 
9769 62036 64491 19001 19095 29903 10797 3699 4235 35997 51561 43156 14180 
14823 8691 54458 51885 60994 8670 33984 34234 2229 36032 41912 37701 16281 
40662 40753 10075 6019 11876 1409 52907 37744 57119 64087 53761 1987 9791 58710 
37360 37444 41554 50105 10983 40216 55305 22090 28214 59959 36017 59476 15790 
11281 58313 26980 44453 56227 9696 12004 34531 55220 58577 26424 10572 13924 
8297 8300 60608 42633 19929 61724 192 2103 18895 47412 18034 9158 58454 51285 
34165 17484 41627 58959 53699 60863 26134 24870 35903 26494 4117 57439 37416 
51334 49573 57764 29667 3091 63970 37587 25690 59932 2092 42169 3868 13665 
48308 34507 30191 63811 43811 42545 41289 11552 40278 41462 27168 1157 30237 
15574 64867 36955 1459 39776 9770 58642 45866 8118 63610 63846 53529 46256 
51469 52741 39402 1654 17357 40729 55428 22503 45392 2154 44193 26187 12318 
61091 6973 17212 43510 10271 26363 58101 1760 63439 29431 23075 25677 42258 
20986 14324 15200 10578 62918 54586 39978 30963 51004 12568 44592 18629 1697 
38408 38694 25452 27915 51115 59009 55449 52588 53083 49348 53826 50262 8252 
10862 55637 3637 5812 32962 43237 39983 62564 58652 20681 45153 45037 7443 
47357 9888 10650 57081 56786 33793 52099 45334 4063 38671 28642 43887 45987 
64974 43705 10437 33747 21761 16146 57031 38157 52663 47952 19893 7261 42674 
22666 37541 36945 47018 36587 1906 28503 44308 58919 47925 58934 6439 1963 
6860 28803 26617 26323 1867 46662 2217 14659 5851 53477 25024 56152 31013 
4005 2936 47571 61162 15776 51460 1602 1500 30702 4544 60385 52964 2759 42369 
62920 36496 61351 31811 62308 26431 23290 40664 51222 48415 15011 15504 15485 
61814 8336 54950 29464 16063 42971 1689 58032 749 60655 42870 17860 4350 64281 
52646 46853 54689 9798 12388 16265 52279 43952 35654 40 54488 26593 17810 
33925 54091 61857 43884 16090 43909 51792 46700 10079 2706 25520 58439 38172 
44536 24782 39597 54097 62511 12143 15426 16145 38934 6244 47351 54880 3094 
44170 20130 22053 26556 44638 45751 30606 9278 14864 22294 53611 27624 53211 
37002 9790 5652 58939 29295 29925 31169 11018 54923 18611 57574 41150 47322 
10349 46685 50433 46496 6316 56863 35411 19914 52195 9659 62610 6988 20667 
26657 13917 31067 2161 31526 25122 11591 26347 47585 27137 60815 34561 29970 
3642 36407 5717 46627 8274 9773 40522 64948 52949 21518 18009 7979 57783 41978 
3496 25329 38118 1893 60919 40090 20524 47802 62616 2872 44588 12412 58227 
49822 19859 17464 59786 15129 51280 41587 15147 8924 7396 41868 10500 56255 
24364 2921 11183 31400 30944 12197 25021 5054 53317 10587 34252 51824 7021 
27843 20692 48402 48760 2812 36751 41382 22319 17168 14756 61486 19651 63 42468 
27567 46433 5696 33482 23929 46085 53093 22533 6763 52802 21875 32703 43264 
60979 34062 48186 8329 56370 64893 61441 61352 46232 573 53320 21466 40360 
18240 15998 37266 65482 22249 60714 22574 33875 37593 62181 31466 30876 27194 
53713 63482 58785 61835 3951 60737 37752 63092 15995 5032 54872 39492 44997 
43295 685 5139 9023 59453 8476 57622 37018 38474 82 61186 30018 36607 20173 
62138 16219 17209 31512 58918 27090 54700 42298 22121 29840 2389 6588 3890 
50915 57194 31042 18979 36865 45485 57417 27577 23928 45052 56459 28359 1353 
59925 62166 54038 62779 50378 3294 5751 63340 42916 20572 53679 61216 15228 
20677 57486 1710 27685 26817 35904 35425 13032 49292 14690 26981 56317 12095 
17594 9657 10707 40305 9759 23586 10788 36651 15917 62475 52278 3877 42104 
7628 24661 5481 21161 43418 51822 47489 63287 12793 64842 3878 19216 10955 
42293 43500 34030 23637 36429 20832 3601 20649 45291 4351 3234 6399 58542 
56787 7880 52909 19412 34283 51269 37668 53007 60906 25715 30907 63418 37605 
47259 42598 58457 42451 7382 53470 5987 33519 35611 23869 27537 11089 64140 
14500 55898 42136 6798 27894 24417 20809 10584 59732 51056 20131 24690 982 48571 
46251 26560 11827 27856 44536 40189 21453 56993 36024 12274 33146 57917 53566 
26448 63298 22395 55095 40821 55398 16960 49833 37976 45021 24713 52929 31881 
24187 52397 43036 59268 56020 50940 34349 23690 57986 52623 41167 44925 31484 
7867 6654 27257 41928 7025 11255 18310 60914 19615 31243 14478 41668 54661 
45190 15875 58210 57641 51822 59219 21201 10180 49487 63753 42191 13696 29107 
52903 42755 13452 34322 2711 5724 36392 21184 5809 30690 64578 34793 52911 
51147 22763 6440 2684 37041 49206 24821 19739 35290 42286 46751 40655 39228 
4077 58245 61291 402 42097 11526 15547 42817 42683 59553 9264 3915 25317 39133 
4098 8304 17803 17728 13366 25920 49371 60203 63810 54187 48328 9271 36176 
38070 62873 15741 63550 62571 46544 62019 26984 14797 36332 56411 49270 48114 
13010 59286 25037 27047 25689 14692 16693 41746 11283 37968 34095 584 41912 
36941 63677 28262 46133 815 47033 53552 16231 3695 35915 22274 47842 52724 
7689 28872 27889 18996 55362 18793 17749 43572 23868 22009 5371 50997 52234 
29067 6984 46120 41190 35451 20430 8434 36153 989 17453 4721 65182 12021 62131 
15547 43981 40512 65068 50800 44586 4345 29644 23266 25348 25479 31161 10973 
43142 32558 22646 18922 19794 4020 22739 17 24973 20809 57616 57483 31429 
24409 21485 33780 21666 31545 46612 34205 40559 30235 52754 27284 62305 12628 
4685 14172 17390 43933 15515 45007 10829 40025 5686 40726 5602 60377 19345 
53101 10682 12434 45127 45263 12244 26773 17979 33537 56054 13018 39307 64302 
60290 31917 30270 16961 10619 57258 6406 2676 27275 21277 24790 46969 23682 
24945 20096 18918 45450 53976 36466 20637 2386 26285 53796 611 18620 31357 
39694 49456 20586 6689 10057 8639 7071 2291 1593 64744 28463 25231 65169 44817 
32029 42057 9399 9978 41765 63631 58600 40274 46042 26265 47503 16891 20580 
21058 17466 9894 44245 60935 35358 24250 26827 13005 57653 36598 31781 65250 
25682 41774 7351 14922 32297 60004 1000 5305 45441 42673 4979 30393 54626 
16910 26888 61071 13983 29307 45737 30203 47115 44599 35844 53401 1023 13488 
10766 8391 38573 51024 28654 3885 17811 39247 13624 37311 35967 42921 64423 
6021 5806 14372 31572 19450 15793 58791 2822 4823 44884 42920 27874 56642 
22699 65011 20256 18634 22778 45919 44312 43819 26515 19699 34908 15882 62522 
11447 1642 34261 40879 42704 12428 19843 14836 9526 49625 27285 52818 64471 
59107 60310 52 52937 55796 56166 48233 25881 64923 35175 59853 15844 37291 
38213 7335 57287 34673 41039 26488 9712 8030 33982 29032 31566 5106 554 2075 
51389 20654 59037 42359 17665 35955 35542 54322 24835 22655 20446 35148 29689 
9785 33347 47116 49675 12632 49723 61717 59190 1741 58641 39703 51902 45113 
63203 22626 6056 40005 5742 54562 1226 978 58727 27755 18610 4281 45549 61834 
3521 40845 29674 360 2631 33493 31525 59513 49401 30409 37996 19293 2412 24774 
6452 46253 9075 39505 54461 37306 13886 40151 25627 65083 6375 48106 46666 
1924 2641 47272 29849 46941 20078 25218 61663 35959 57840 63286 21772 50808 
47798 26938 56725 24047 23524 38127 5075 18215 19369 42100 4891 41101 43916 
44696 23768 38265 26295 23737 46991 1471 41782 689 14868 55501 57890 45511 
4127 33858 42715 55855 22414 53674 21731 3420 42401 65210 38556 3122 57583 
59012 59440 28347 32121 56815 10818 27248 7315 46579 37096 56132 15243 5947 
25610 50357 41452 36755 31226 48461 10324 8259 7238 48959 39461 39220 57609 
55200 29755 40588 9731 9845 41786 31221 39211 18639 32618 28204 47754 10981 
21569 52268 19465 56258 23880 23564 8969 34082 25629 36445 1605 18450 38760 
34739 58002 47565 37822 30925 15555 60077 55557 7059 24817 55608 38858 52176 
22478 60263 45569 25819 6853 64991 34901 16448 47848 44524 38385 36077 18927 
52737 61030 62396 11379 19164 29635 62627 35794 13817 56243 15617 19992 10419 
37043 46933 47737 33540 54410 51185 45165 42611 19258 48943 8016 3886 58547 
10213 2402 28014 21469 38626 39590 42418 33971 15281 1949 2194 57221 47481 
18186 18372 37000 12782 17972 65235 14731 61156 26959 38672 45432 38920 46677 
18266 6103 25404 32016 36494 23117 26820 9343 1922 36163 40597 48456 16509 
54274 41071 21498 45033 27134 43804 36020 29568 51414 56235 36186 16403 53054 
1698 2049 13518 19091 10856 34339 41895 12162 7433 8713 56455 30974 60411 
6935 45694 64805 56991 12855 22951 60649 17380 36174 54887 47712 38462 49054 
33901 3103 50468 20745 53565 28700 30087 59155 32207 60721 25552 6631 26353 
18899 45857 65491 59244 5290 51382 2608 276 43791 19844 6551 51317 43590 29469 
802 7168 38408 3132 4692 3562 39234 33565 59943 40390 4531 21462 25811 62352 
19437 2886 42479 30318 14436 14544 4150 59336 39503 3694 6935 63312 29064 
40938 55684 21612 36243 62893 53331 49089 7601 38687 19761 17218 59645 23547 
4743 21889 15259 47387 47641 22074 47724 58973 45722 14194 46213 43034 63268 
20190 10574 1284 50623 34068 10131 445 46278 15698 54551 45233 63688 49680 
23446 33706 65312 47198 34303 51109 64212 54561 34171 61158 35583 61380 29652 
43193 6437 40912 59750 1175 58840 29910 30590 14202 47799 53135 60724 3467 
52383 15212 36787 22461 61927 54961 20422 59343 4675 41127 47463 56964 19451 
52791 17476 44862 60058 52261 2538 24661 51650 7225 33478 47076 42129 60297 
32336 22978 63670 24790 22434 28955 55607 57303 21292 42865 23023 64554 44688 
36845 43706 19770 17506 6601 62491 35498 24040 35361 42669 23776 45295 7747 
58336 36626 48050 35136 15278 56138 18185 28559 44037 57390 10397 8450 10813 
95 11859 14045 16028 39656 39587 45372 18903 5656 58648 24041 17348 24983 
39142 52823 26472 15302 43069 50278 45477 24254 355 38297 56585 43085 20071 
56806 40866 40753 26772 24729 51661 33258 60728 45020 562 65390 60912 43886 
4078 30864 36116 4827 9434 25722 57263 35761 5066 31629 14550 24879 5984 44933 
62049 49679 94 1933 63334 60212 22887 42779 795 4252 23479 22604 4514 5224 
13067 15038 39334 14840 6367 44273 24721 36628 2094 36991 27076 63214 57884 
50049 41179 1450 62765 4663 17752 55583 1109 42516 11772 57186 14368 7308 46023 
12028 65025 25854 58687 1915 42455 50696 45117 9795 25341 1802 1823 55118 
3059 53207 5888 283 12385 841 58127 7033 63711 11999 56994 24846 10175 6797 
57675 52350 55758 15720 42345 26071 53169 20859 14412 36134 54145 32133 58288 
22882 22081 61180 12633 18931 31370 20497 4805 17843 63410 16757 21690 27277 
39627 14111 25900 21518 38044 30255 22864 10761 42330 51056 59409 26733 63438 
44437 12159 38193 20678 59866 34869 58743 25066 36491 52383 36856 24809 12336 
35156 5220 9766 50513 37228 91 60354 13875 45505 54820 25840 19231 11713 65054 
19530 59233 48326 46687 40202 26264 58796 29427 6858 3522 43017 7761 41187 
9737 30952 51540 3554 31026 40508 19239 7891 25992 3504 58441 23379 17206 
46126 10277 54090 62913 64026 37572 3886 52056 16288 38335 14199 13113 32317 
7072 61569 47093 1090 24583 661 20603 50785 59225 30548 5047 32399 54787 61467 
52455 27825 60733 50178 3520 35121 32261 22702 25157 29112 21388 22857 18850 
30159 22574 14763 23543 5815 31322 45090 57973 53717 12310 22030 17695 59368 
26790 30698 52028 37301 25413 34530 17178 23236 58336 38539 51722 44545 15774 
30360 64198 24380 1520 49880 27227 3916 21652 13075 46350 31712 44504 60949 
26130 45308 35226 31375 31240 134 34325 17979 34757 47668 5956 57986 5203 30593 
60391 40160 55362 61187 23676 65363 30251 19216 11584 59068 64536 36355 61953 
64169 16136 22567 12137 26787 42625 6301 266 39139 20198 54328 38731 45197 
52503 22216 29206 22707 57624 9331 54906 5669 65048 30578 55625 3818 61086 
35937 17475 43996 7325 23819 56365 7811 22115 4444 46087 51564 60656 55682 
33953 1369 40974 7120 46723 47099 54497 12014 58788 29674 5883 10508 7981 2513 
9285 44912 25996 48891 21869 7768 15918 35298 50146 37228 23510 54644 10558 
39532 42194 5853 65300 55201 30315 41833 46934 30349 54543 61980 33289 8527 
34498 51749 6269 59534 32628 1877 2356 51900 28800 55099 16808 55743 47429 
43480 15729 43384 61391 9557 42171 21507 21407 53298 5671 11793 8655 7652 53631 
57968 19544 53968 28387 60009 16126 23593 12169 32488 3510 22565 50582 18302 
51224 49138 41025 40942 16950 13903 59326 6569 18075 61834 3618 57075 31222 
9661 14827 39729 58751 20007 44642 54284 65255 61144 44823 1488 22119 48792 
34322 8957 25894 28260 5690 38909 13541 2010 52960 9931 9677 44394 62611 497 
19486 59063 41023 44415 29688 39441 44210 24981 24400 24745 5242 21370 42755 
13066 30468 9555 21008 1730 35643 36666 56761 43536 53390 20143 6478 39064 
11238 18655 2761 5127 37851 24900 22612 62071 51705 60504 25540 63547 49817 
58152 37674 64971 7180 14004 18035 
